<?xml version="1.0" encoding="UTF-8"?>
<svg width="40" height="40" fill="none" version="1.1" viewBox="0 0 40 40" xml:space="preserve" xmlns="http://www.w3.org/2000/svg">
  <defs>
    <linearGradient id="linearGradient9519" x2="45.972" y1="22.986" y2="22.986" gradientTransform="matrix(.48777 .48777 -.48777 .48777 20.009 -2.4269)" gradientUnits="userSpaceOnUse">
      <stop stop-color="#fe8c00" offset=".18367" />
      <stop stop-color="#f83600" offset=".7551" />
    </linearGradient>
  </defs>
  <path d="m32.209 27.765-1.1887-1.1887c0.64045-1.0824 1.1024-2.234 1.3906-3.4217l1.7111-2e-3c0.46143 0 0.89604-0.18096 1.2228-0.50777 0.32632-0.32632 0.5068-0.76239 0.50728-1.2224l-0.0015-2.8471c4.87e-4 -0.92433-0.80727-1.7311-1.7287-1.7296l-1.776-0.0054c-0.30433-1.155-0.75894-2.2651-1.4101-3.3378l1.2721-1.2721c0.67459-0.67459 0.6902-1.7682 0.01561-2.4428l-2.0135-2.0135c-0.67459-0.67459-1.7599-0.65069-2.4345 0.023901l-1.2716 1.2716c-1.0716-0.65118-2.1872-1.1102-3.3437-1.415l-0.0049-1.7755c9.97e-4 -0.92384-0.80724-1.7311-1.7316-1.7326l-2.8462-4.872e-4c-0.45607-4.877e-4 -0.9014 0.18438-1.2233 0.50631-0.32632 0.32632-0.50728 0.75995-0.5068 1.2219l-0.003902 1.7131c-1.1872 0.28876-2.3394 0.7502-3.4212 1.3911l-1.1892-1.1892c-0.67508-0.67508-1.7623-0.67752-2.4355-0.0043906l-2.0121 2.0121c-0.67508 0.67508-0.66045 1.7501 0.014633 2.4252l1.1892 1.1892c-0.64094 1.0819-1.1077 2.2384-1.397 3.4251l-1.7145 0.0054c-0.46192-4.88e-4 -0.8975 0.18145-1.2243 0.50826-0.32681 0.32681-0.50826 0.76288-0.50826 1.2243l4.878e-4 2.8481c4.878e-4 0.46192 0.18048 0.89555 0.5068 1.2219 0.32632 0.32632 0.76093 0.50631 1.2224 0.50728l1.7799 0.0083c0.30486 1.1565 0.76434 2.2716 1.4145 3.3442l-1.2702 1.2702c-0.67459 0.67459-0.68776 1.7492-0.01317 2.4237l2.0135 2.0135c0.67459 0.67459 1.7574 0.66971 2.432-0.0049l1.2707-1.2707c1.0726 0.65118 2.1828 1.1058 3.3393 1.4106l0.0024 1.7701c-4.89e-4 0.4629 0.17999 0.89702 0.50728 1.2243 0.32681 0.32681 0.7619 0.50728 1.2228 0.50777l2.8471 0.0015c0.46095 4.88e-4 0.89506-0.18096 1.2224-0.50631 0.32681-0.32681 0.50582-0.76142 0.5068-1.2228l0.0098-1.717c1.1872-0.28974 2.3442-0.75702 3.4256-1.3965l1.1892 1.1892c0.67459 0.67459 1.7594 0.69898 2.4345 0.0239l2.0121-2.0121c0.67362-0.67264 0.66191-1.7692-0.01268-2.4437zm-16.04-3.9368c-2.1355-2.1355-2.1516-5.5826-0.03707-7.6971 2.116-2.116 5.5606-2.0974 7.6961 0.03805 2.136 2.136 2.1555 5.5816 0.03951 7.6976-2.1155 2.1145-5.5626 2.0974-7.6985-0.03853z" fill="url(#linearGradient9519)" opacity=".82667" stroke-width=".69" />
</svg>
