<svg width="13" height="13" viewBox="0 0 40 40" fill="none" xmlns="http://www.w3.org/2000/svg">
  <g clip-path="url(#clip0_1_8)">
    <circle cx="20" cy="20" r="18" fill="url(#paint0_linear_1_8)"/>
    <path d="M16.4574 31.664C15.5614 31.664 14.7694 31.488 14.0814 31.136C13.4094 30.784 12.8974 30.288 12.5454 29.648C12.1934 29.024 12.0414 28.272 12.0894 27.392L12.3294 23.744C12.3774 23.088 12.2414 22.592 11.9214 22.256C11.6174 21.92 11.0974 21.752 10.3614 21.752H7.50538V18.992H10.3614C11.0974 18.992 11.6174 18.824 11.9214 18.488C12.2414 18.152 12.3774 17.664 12.3294 17.024L12.0894 13.256C12.0414 12.392 12.1934 11.648 12.5454 11.024C12.8974 10.4 13.4094 9.92 14.0814 9.584C14.7694 9.248 15.5614 9.08 16.4574 9.08H18.1134V11.84H16.8894C16.3134 11.84 15.8574 11.976 15.5214 12.248C15.2014 12.52 15.0574 12.952 15.0894 13.544L15.3294 17.288C15.3934 18.232 15.1134 18.992 14.4894 19.568C13.8654 20.144 12.9934 20.432 11.8734 20.432V20.264C12.9774 20.264 13.8414 20.56 14.4654 21.152C15.1054 21.728 15.3934 22.496 15.3294 23.456L15.0894 27.2C15.0734 27.728 15.2254 28.144 15.5454 28.448C15.8814 28.736 16.3294 28.88 16.8894 28.88H18.1134V31.664H16.4574ZM21.896 31.664V28.88H23.12C23.68 28.88 24.128 28.736 24.464 28.448C24.8 28.144 24.952 27.728 24.92 27.2L24.68 23.456C24.616 22.496 24.896 21.728 25.52 21.152C26.16 20.56 27.032 20.264 28.136 20.264V20.432C27.032 20.432 26.16 20.144 25.52 19.568C24.896 18.992 24.616 18.232 24.68 17.288L24.92 13.544C24.952 12.952 24.8 12.52 24.464 12.248C24.144 11.976 23.696 11.84 23.12 11.84H21.896V9.08H23.552C24.448 9.08 25.232 9.248 25.904 9.584C26.592 9.92 27.112 10.4 27.464 11.024C27.816 11.648 27.968 12.392 27.92 13.256L27.68 17.024C27.632 17.664 27.768 18.152 28.088 18.488C28.408 18.824 28.928 18.992 29.648 18.992H32.504V21.752H29.648C28.928 21.752 28.408 21.92 28.088 22.256C27.768 22.592 27.632 23.088 27.68 23.744L27.92 27.392C27.968 28.272 27.816 29.024 27.464 29.648C27.112 30.288 26.592 30.784 25.904 31.136C25.232 31.488 24.448 31.664 23.552 31.664H21.896Z" fill="white"/>
  </g>
  <defs>
    <linearGradient id="paint0_linear_1_8" x1="7.28173" y1="7.26749" x2="32.7438" y2="32.7275" gradientUnits="userSpaceOnUse">
      <stop stop-color="#1A73E8"/>
      <stop offset="1" stop-color="#34A853"/>
    </linearGradient>
    <clipPath id="clip0_1_8">
      <rect width="40" height="40" fill="white"/>
    </clipPath>
  </defs>
</svg>
